<svg xmlns="http://www.w3.org/2000/svg" viewBox="0 0 640 512">
  <path fill="#00ADD8" d="M400.1 194.8C389.2 197.6 380.2 199.1 371 200.3c-41.1 4.6-79.9-2.4-116.1-20.2c-20.9-10.3-39.8-23.6-54.9-41.2c-15.1-17.6-25.4-37.9-28.1-60.3c-3.2-26.3 3.4-49.6 20.5-69.3c26.6-30.7 63.1-44.8 102.4-47.6c25.3-1.8 50.3 1.5 74.6 9.5c20.2 6.7 38.9 16.6 55.2 30.8c9.5 8.3 17.9 17.6 25.9 27.5c2.3 2.8 2.1 3.9-.6 6.1c-9.7 7.8-19.3 15.7-29 23.5c-2.8 2.3-4.1 1.8-6.4-.6c-11.7-11.9-25.3-21.2-41.1-27.2c-16.4-6.2-33.5-8.9-51.1-8.3c-14.4.5-28.2 3.6-40.9 10.5c-19.1 10.3-31.3 26-35.5 47.4c-3.7 18.8-.9 36.7 7.8 53.6c11 21.3 28.5 36.2 49.9 46.8c22.8 11.3 47 16.2 72.3 16.2c14.5 0 29-1.5 43.3-4.6c2.2-.5 4.3-.9 6.5-1.4c3.6-.8 3.9-.5 3.9 3.2c0 13.1 0 26.1.1 39.2c0 3.5-1 4.4-4.5 4.9c-26.9 4.2-53.9 5.5-81.1 3.3c-18.5-1.5-36.5-5.5-53.7-12.4c-22.4-9-41.6-22.5-57.2-40.7c-19.1-22.3-29.1-48.4-30.4-77.9c-1.2-27.3 6.8-52.3 22.6-74.7c18.6-26.4 43.8-44.4 73.9-54.7c27.3-9.3 55.6-11.7 84.4-9.1c21.4 1.9 42 7.2 61.3 16.6c15.5 7.5 29.4 17.4 41.4 29.9c1.4 1.5 1.5 2.5.1 4c-9.7 10.2-19.4 20.4-29.1 30.7c-2.1 2.2-3.2 1.8-5.2-.1c-14.5-13.6-31.4-22.9-50.8-27.7c-17.4-4.3-35.1-4.9-52.9-2.4c-22.5 3.2-42.1 12.3-57.5 29.4c-14.7 16.3-21.7 35.7-20.1 57.7c1.7 23.1 11.7 42.2 29.1 57.1c15.2 13 33.1 20.6 52.9 23.7c24.4 3.8 48.3 1.6 71.7-6.2c2.7-.9 3.5-.5 3.5 2.4c0 13.3 0 26.6.1 39.9c0 3.3-1.1 4.1-4.2 4.6c-12.2 2.1-24.5 3.3-36.9 3.7c-14.5.5-29-.5-43.4-2.3c-20.8-2.7-40.8-8.2-59.6-17.5c-29.8-14.7-52.9-36.3-68.3-66.2c-11.4-22.1-16.2-45.8-14.7-70.8c1.5-24.5 9.2-47.1 23.4-67.3c16.2-23 37.7-39.8 63.5-50.8c19.1-8.2 39.1-12.8 59.9-14.1c24.6-1.5 48.8.9 72.6 7.8c22.8 6.6 43.5 17 61.5 32.3c1.2 1 1.3 1.8.3 2.9c-9.8 10.3-19.6 20.6-29.4 30.9c-.7.7-1.3 1.4-2.1 2.3zm-132.8 89.9c-1.2.1-2.4.2-3.6.4c-10.3 1.2-20.6 2.4-30.9 3.6c-2.4.3-3.5-.5-4.1-2.8c-3.9-14.5-7.8-29-11.7-43.5c-.7-2.6.2-3.7 2.7-4.1c10.8-1.5 21.6-3.1 32.4-4.6c2.3-.3 3.1.7 3.6 2.8c3.8 14.2 7.6 28.4 11.4 42.6c.4 1.4.2 2.7-1.1 5.1c.2.4.4.8.7 1.2c-.1-.2-.2-.4-.4-.7z"/>
</svg>