<svg xmlns="http://www.w3.org/2000/svg" viewBox="0 0 512 512">
  <path fill="#000000" d="M508.52,249.75l-186-80.76q3.71-5.49,7.41-10.82c22.68-32.61,44.65-59.67,66-82.37s41.47-42.84,60.42-58.72V49.22a7.92,7.92,0,0,0-4.72-7.23L396.85,8.92a7.92,7.92,0,0,0-7.23,0L334.87,41.99c-18.95,15.88-39.06,36.02-60.42,58.72s-43.32,49.76-66,82.37q-3.7,5.33-7.41,10.82L15.13,273.61a7.92,7.92,0,0,0-4.72,7.23v38.04a7.92,7.92,0,0,0,4.72,7.23l55.74,23.86a7.92,7.92,0,0,0,7.23,0l39.45-16.88c1.79,20.15,4.48,40.97,8.07,62.47s7.97,43.38,13.14,65.88a7.92,7.92,0,0,0,5.72,5.72l42.94,10.73a7.92,7.92,0,0,0,7.23-1.51l31.38-26.66a7.92,7.92,0,0,0,2.21-8.74L186.13,405.37c-3.79-11.37-7.23-22.74-10.23-34.11s-5.72-22.74-8.07-34.11c-2.35-11.37-4.34-22.74-5.72-34.11s-2.51-22.74-3.21-34.11L334.87,349.8c18.95,15.88,39.06,36.02,60.42,58.72s43.32,49.76,66,82.37q3.7,5.33,7.41,10.82l-31.38,26.66a7.92,7.92,0,0,0-2.21,8.74l42.94,10.73a7.92,7.92,0,0,0,7.23-1.51l31.38-26.66a7.92,7.92,0,0,0,2.21-8.74L508.52,249.75Z"/>
</svg>