<svg xmlns="http://www.w3.org/2000/svg" viewBox="0 0 400 400">
  <path fill="#3178C6" d="M0 200V0h400v400H0M316.7 214.3c9.3-2.4 16.4-6.7 23.3-13.9 3.4-4 8.4-11.8 8.8-14 .1-.5-15.8-11.2-25.5-17.1-.4-.2-1.8 1.3-3.3 3.5-4.7 6.8-9.6 9.8-16.9 10.2-10.9.6-17.9-4.9-17.9-13.9-.1-3 .4-4.7 1.8-7.1 2.8-4.9 8.5-7.9 25.1-13.4 34.4-11.5 49.1-19 57.8-29.8 9.7-11.9 11.9-30.8 5.4-44.8-7.1-15.3-24.7-25.8-47.7-28.5-7.4-.9-24.6-.7-32.4.3-17.2 2.3-33.5 9.6-43.3 19.4-3.4 3.4-10 12.2-9.5 12.7.2.2 1.8 1.3 3.6 2.4 1.8 1.2 8.5 4.9 14.9 8.3l11.6 6.2 2.4-3.6c3.4-5.1 10.8-12.1 15.3-14.5 12.8-6.7 30.4-5.8 39 1.9 3.7 3.3 5.2 6.7 5.2 11.7 0 4.5-.5 6.4-2.7 9.3-2.8 3.8-8.6 7-24.9 13.7-18.4 7.6-26.4 12.2-33.8 19.9-4.2 4.4-8.2 10.5-10 15.4-1.6 4.2-2 6.9-2 14.4 0 7.8.4 10.1 2.2 14.8 5.8 14.7 20.9 25.2 40.3 28 7.4 1.1 24.4.4 31.8-1.2M200.9 195.6v-27.6h-87v-15.8h87v-27.6h-49.1v-31.7h49.1V65.2H76.2v27.7h49.1v31.7H76.2v15.8h49.1v27.6H76.2v15.8h49.1v31.7H76.2v27.7h124.7v-27.7h-49.1v-31.7h49.1v-15.8z"/>
</svg>